<?xml version="1.0" encoding="utf-8"?>
<!-- Generator: Adobe Illustrator 16.0.0, SVG Export Plug-In . SVG Version: 6.00 Build 0)  -->
<!DOCTYPE svg PUBLIC "-//W3C//DTD SVG 1.1//EN" "http://www.w3.org/Graphics/SVG/1.1/DTD/svg11.dtd">
<svg version="1.1" id="レイヤー_1" xmlns:sketch="http://www.bohemiancoding.com/sketch/ns"
	 xmlns="http://www.w3.org/2000/svg" xmlns:xlink="http://www.w3.org/1999/xlink" x="0px" y="0px" width="1632.354px"
	 height="1706.436px" viewBox="0 0 1632.354 1706.436" enable-background="new 0 0 1632.354 1706.436" xml:space="preserve">
<g id="Page-1" sketch:type="MSPage">
	<g id="PROTOPAGE" transform="translate(-1195.000000, -137.000000)" sketch:type="MSArtboardGroup">
		<g enable-background="new    ">
			<path fill="#FF0000" d="M2381.855,407.049c70.827,0,136.938,18.888,188.879,56.665c51.94,37.774,94.441,84.997,118.053,141.659
				c23.604,56.667,33.051,118.051,33.051,179.438c0,61.386-14.165,118.05-42.497,165.271
				c-47.221,89.719-127.498,184.161-240.824,288.042c-113.327,103.88-207.77,184.158-297.484,245.545l-127.491,89.719
				c-14.166-9.444-33.057-18.89-56.667-37.773c-23.61-14.166-66.11-47.221-132.217-94.439
				c-66.106-47.221-122.768-94.44-179.434-141.66c-51.941-47.221-108.605-103.887-169.993-165.271
				c-56.667-66.11-103.883-122.772-132.213-179.437c-28.331-47.221-42.501-103.888-42.501-165.271
				c0-61.386,9.446-122.772,33.056-179.437c23.611-56.666,61.386-103.884,113.326-141.66
				c51.941-37.775,118.053-56.666,193.604-56.666c66.106,0,122.768,14.166,174.713,37.775
				c51.94,23.611,89.723,56.667,113.331,94.439c23.607,37.774,42.497,66.11,56.663,89.722c9.445,23.608,18.889,42.498,23.61,61.383
				c4.72-18.887,14.165-37.774,23.609-61.383c9.446-23.611,28.332-51.941,56.667-89.722c23.61-37.774,66.111-70.829,113.326-94.439
				C2259.079,421.215,2320.47,407.049,2381.855,407.049z"/>
		</g>
	</g>
</g>
</svg>
